{
  "accessors": [
    {
      "bufferView": 2,
      "componentType": 5126,
      "count": 3048,
      "max": [
        0.43114298582077026,
        -0.07617799937725067,
        0.8155339956283569
      ],
      "min": [
        -0.494159996509552,
        -0.2653779983520508,
        0.42879098653793335
      ],
      "type": "VEC3"
    },
    {
      "bufferView": 2,
      "byteOffset": 36576,
      "componentType": 5126,
      "count": 3048,
      "max": [
        0.9999634027481079,
        0.9999395608901978,
        0.991782009601593
      ],
      "min": [
        -0.9999387264251709,
        -0.9999685287475586,
        -0.995387077331543
      ],
      "type": "VEC3"
    },
    {
      "bufferView": 1,
      "componentType": 5126,
      "count": 3048,
      "max": [
        1.0,
        1.0
      ],
      "min": [
        0.0,
        0.0
      ],
      "type": "VEC2"
    },
    {
      "bufferView": 0,
      "componentType": 5125,
      "count": 15420,
      "type": "SCALAR"
    },
    {
      "bufferView": 2,
      "byteOffset": 73152,
      "componentType": 5126,
      "count": 3048,
      "max": [
        0.4301060140132904,
        -0.07725600153207779,
        0.8145610094070435
      ],
      "min": [
        -0.49306198954582214,
        -0.2643570005893707,
        0.42964500188827515
      ],
      "type": "VEC3"
    },
    {
      "bufferView": 2,
      "byteOffset": 109728,
      "componentType": 5126,
      "count": 3048,
      "max": [
        0.9999735355377197,
        0.9999419450759888,
        0.9890142679214478
      ],
      "min": [
        -0.9999176263809204,
        -0.9999502897262573,
        -0.9863437414169312
      ],
      "type": "VEC3"
    },
    {
      "bufferView": 1,
      "byteOffset": 24384,
      "componentType": 5126,
      "count": 3048,
      "max": [
        1.0,
        1.0
      ],
      "min": [
        0.0,
        0.0
      ],
      "type": "VEC2"
    },
    {
      "bufferView": 0,
      "byteOffset": 61680,
      "componentType": 5125,
      "count": 15420,
      "type": "SCALAR"
    },
    {
      "bufferView": 2,
      "byteOffset": 146304,
      "componentType": 5126,
      "count": 3928,
      "max": [
        0.4844149947166443,
        0.06819900125265121,
        0.9270370006561279
      ],
      "min": [
        -0.4844149947166443,
        -0.2772639989852905,
        0.02524299919605255
      ],
      "type": "VEC3"
    },
    {
      "bufferView": 2,
      "byteOffset": 193440,
      "componentType": 5126,
      "count": 3928,
      "max": [
        0.9995837807655334,
        0.9997842907905579,
        0.9998682141304016
      ],
      "min": [
        -0.9990620613098145,
        -0.9999426603317261,
        -0.9999117851257324
      ],
      "type": "VEC3"
    },
    {
      "bufferView": 1,
      "byteOffset": 48768,
      "componentType": 5126,
      "count": 3928,
      "max": [
        0.9998499751091003,
        0.9809499979019165
      ],
      "min": [
        0.00014000000373926014,
        0.00014000000373926014
      ],
      "type": "VEC2"
    },
    {
      "bufferView": 0,
      "byteOffset": 123360,
      "componentType": 5125,
      "count": 20352,
      "type": "SCALAR"
    },
    {
      "bufferView": 2,
      "byteOffset": 240576,
      "componentType": 5126,
      "count": 3221,
      "max": [
        0.4370970129966736,
        -0.05063899978995323,
        0.748524010181427
      ],
      "min": [
        -0.47252899408340454,
        -0.2645770013332367,
        0.38070398569107056
      ],
      "type": "VEC3"
    },
    {
      "bufferView": 2,
      "byteOffset": 279228,
      "componentType": 5126,
      "count": 3221,
      "max": [
        0.9982048869132996,
        0.999043345451355,
        0.9939560294151306
      ],
      "min": [
        -0.9992651343345642,
        -0.9972767233848572,
        -0.9987046718597412
      ],
      "type": "VEC3"
    },
    {
      "bufferView": 1,
      "byteOffset": 80192,
      "componentType": 5126,
      "count": 3221,
      "max": [
        0.9996200203895569,
        0.9491599798202515
      ],
      "min": [
        0.0003800000122282654,
        0.0003800000122282654
      ],
      "type": "VEC2"
    },
    {
      "bufferView": 0,
      "byteOffset": 204768,
      "componentType": 5125,
      "count": 16944,
      "type": "SCALAR"
    },
    {
      "bufferView": 2,
      "byteOffset": 317880,
      "componentType": 5126,
      "count": 7149,
      "max": [
        0.48691099882125854,
        0.07059600204229355,
        0.9290739893913269
      ],
      "min": [
        -0.48691099882125854,
        -0.27974000573158264,
        0.025408999994397163
      ],
      "type": "VEC3"
    },
    {
      "bufferView": 2,
      "byteOffset": 403668,
      "componentType": 5126,
      "count": 7149,
      "max": [
        0.9995339512825012,
        0.9999397993087769,
        0.9999030828475952
      ],
      "min": [
        -0.999668538570404,
        -0.9997798800468445,
        -0.9996691346168518
      ],
      "type": "VEC3"
    },
    {
      "bufferView": 1,
      "byteOffset": 105960,
      "componentType": 5126,
      "count": 7149,
      "max": [
        0.9998499751091003,
        0.9809499979019165
      ],
      "min": [
        0.00014000000373926014,
        0.00014000000373926014
      ],
      "type": "VEC2"
    },
    {
      "bufferView": 0,
      "byteOffset": 272544,
      "componentType": 5125,
      "count": 37296,
      "type": "SCALAR"
    }
  ],
  "asset": {
    "extras": {
      "author": "Coffeek (https://sketchfab.com/coffe0wolf)",
      "license": "CC-BY-4.0 (http://creativecommons.org/licenses/by/4.0/)",
      "source": "https://sketchfab.com/3d-models/damaged-hands-57df95d1c6e746fd9c414948f71de937",
      "title": "Damaged hands"
    },
    "generator": "Sketchfab-12.65.0",
    "version": "2.0"
  },
  "bufferViews": [
    {
      "buffer": 0,
      "byteLength": 421728,
      "name": "floatBufferViews",
      "target": 34963
    },
    {
      "buffer": 0,
      "byteLength": 163152,
      "byteOffset": 421728,
      "byteStride": 8,
      "name": "floatBufferViews",
      "target": 34962
    },
    {
      "buffer": 0,
      "byteLength": 489456,
      "byteOffset": 584880,
      "byteStride": 12,
      "name": "floatBufferViews",
      "target": 34962
    }
  ],
  "buffers": [
    {
      "byteLength": 1074336,
      "uri": "scene.bin"
    }
  ],
  "extensionsUsed": [
    "KHR_materials_unlit"
  ],
  "images": [
    {
      "uri": "textures/Material.003_baseColor.png"
    },
    {
      "uri": "textures/defaultMat.002_baseColor.png"
    }
  ],
  "materials": [
    {
      "alphaMode": "BLEND",
      "extensions": {
        "KHR_materials_unlit": {}
      },
      "name": "Material.001",
      "pbrMetallicRoughness": {
        "baseColorFactor": [
          0.009615739678686761,
          0.009615739678686761,
          0.009615739678686761,
          0.6097273650353562
        ],
        "metallicFactor": 0.0
      }
    },
    {
      "extensions": {
        "KHR_materials_unlit": {}
      },
      "name": "Material.002",
      "pbrMetallicRoughness": {
        "baseColorFactor": [
          0.44431133585434474,
          0.7494345424331753,
          0.4699950003496165,
          1.0
        ],
        "metallicFactor": 0.0
      }
    },
    {
      "doubleSided": true,
      "extensions": {
        "KHR_materials_unlit": {}
      },
      "name": "Material.003",
      "pbrMetallicRoughness": {
        "baseColorTexture": {
          "index": 0
        },
        "metallicFactor": 0.0
      }
    },
    {
      "extensions": {
        "KHR_materials_unlit": {}
      },
      "name": "defaultMat.001",
      "pbrMetallicRoughness": {
        "baseColorFactor": [
          0.43425069249245785,
          0.10371285978463277,
          0.003834898606906126,
          1.0
        ],
        "metallicFactor": 0.0
      }
    },
    {
      "extensions": {
        "KHR_materials_unlit": {}
      },
      "name": "defaultMat.002",
      "pbrMetallicRoughness": {
        "baseColorTexture": {
          "index": 1
        },
        "metallicFactor": 0.0
      }
    }
  ],
  "meshes": [
    {
      "name": "Object_0",
      "primitives": [
        {
          "attributes": {
            "NORMAL": 1,
            "POSITION": 0,
            "TEXCOORD_0": 2
          },
          "indices": 3,
          "material": 0,
          "mode": 4
        }
      ]
    },
    {
      "name": "Object_1",
      "primitives": [
        {
          "attributes": {
            "NORMAL": 5,
            "POSITION": 4,
            "TEXCOORD_0": 6
          },
          "indices": 7,
          "material": 1,
          "mode": 4
        }
      ]
    },
    {
      "name": "Object_2",
      "primitives": [
        {
          "attributes": {
            "NORMAL": 9,
            "POSITION": 8,
            "TEXCOORD_0": 10
          },
          "indices": 11,
          "material": 2,
          "mode": 4
        }
      ]
    },
    {
      "name": "Object_3",
      "primitives": [
        {
          "attributes": {
            "NORMAL": 13,
            "POSITION": 12,
            "TEXCOORD_0": 14
          },
          "indices": 15,
          "material": 4,
          "mode": 4
        }
      ]
    },
    {
      "name": "Object_4",
      "primitives": [
        {
          "attributes": {
            "NORMAL": 17,
            "POSITION": 16,
            "TEXCOORD_0": 18
          },
          "indices": 19,
          "material": 3,
          "mode": 4
        }
      ]
    }
  ],
  "nodes": [
    {
      "children": [
        1
      ],
      "matrix": [
        1.0,
        0.0,
        0.0,
        0.0,
        0.0,
        2.220446049250313e-16,
        -1.0,
        0.0,
        0.0,
        1.0,
        2.220446049250313e-16,
        0.0,
        0.0,
        0.0,
        0.0,
        1.0
      ],
      "name": "Sketchfab_model"
    },
    {
      "children": [
        2,
        3,
        4,
        5,
        6
      ],
      "name": "full.obj.cleaner.materialmerger.gles"
    },
    {
      "mesh": 0,
      "name": "Object_2"
    },
    {
      "mesh": 1,
      "name": "Object_3"
    },
    {
      "mesh": 2,
      "name": "Object_4"
    },
    {
      "mesh": 3,
      "name": "Object_5"
    },
    {
      "mesh": 4,
      "name": "Object_6"
    }
  ],
  "samplers": [
    {
      "magFilter": 9729,
      "minFilter": 9987,
      "wrapS": 10497,
      "wrapT": 10497
    }
  ],
  "scene": 0,
  "scenes": [
    {
      "name": "Sketchfab_Scene",
      "nodes": [
        0
      ]
    }
  ],
  "textures": [
    {
      "sampler": 0,
      "source": 0
    },
    {
      "sampler": 0,
      "source": 1
    }
  ]
}
